<svg xmlns="http://www.w3.org/2000/svg" width="329.4" height="213.1" viewBox="0 0 329.4 213.1"><path fill-rule="evenodd" clip-rule="evenodd" fill="#3A4E55" d="M171.1 67.3h33.7v34.4h17c7.9 0 15.9-1.4 23.4-3.9 3.7-1.2 7.8-3 11.4-5.1-4.8-6.2-7.2-14-7.9-21.8-1-10.5 1.1-24.2 8.3-32.4l3.5-4.1 4.2 3.4c10.6 8.5 19.5 20.4 21.1 34 12.8-3.8 27.8-2.9 39 3.6l4.6 2.7-2.4 4.7c-9.5 18.6-29.4 24.3-48.9 23.3C249 178.7 185.5 213 108.6 213c-39.7 0-76.2-14.9-96.9-50.1l-.3-.6-3-6.2c-7-15.5-9.3-32.5-7.8-49.5l.5-5.1h28.8V67.3h33.6V33.7h67.3V0h40.4v67.3z"/><path fill="#08AADA" d="M280.1 80c2.3-17.5-10.9-31.3-19-37.8-9.4 10.8-10.8 39.3 3.9 51.2-8.2 7.3-25.5 13.9-43.2 13.9H6.1c-1.7 18.5 1.5 35.5 8.9 50.1l2.5 4.5c1.6 2.6 3.3 5.2 5.1 7.6 8.9.6 17 .8 24.5.6 14.7-.3 26.7-2.1 35.8-5.2 1.4-.5 2.8.2 3.3 1.6.5 1.4-.2 2.8-1.6 3.3-1.2.4-2.5.8-3.8 1.2-7.2 2-14.8 3.4-24.7 4 .6 0-.6.1-.6.1-.3 0-.8.1-1.1.1-3.9.2-8.1.3-12.4.3-4.7 0-9.3-.1-14.5-.4l-.1.1c18 20.2 46.1 32.3 81.3 32.3 74.5 0 137.8-33 165.8-107.2 19.9 2 39-3 47.6-20-14-8-31.8-5.4-42-.3z"/><path fill="#2BB8EB" d="M280.1 80c2.3-17.5-10.9-31.3-19-37.8-9.4 10.8-10.8 39.3 3.9 51.2-8.2 7.3-25.5 13.9-43.2 13.9h-203c-.9 28.3 9.6 49.8 28.2 62.8 14.7-.3 26.7-2.1 35.8-5.2 1.4-.5 2.8.2 3.3 1.6.5 1.4-.2 2.8-1.6 3.3-1.2.4-2.5.8-3.8 1.2-7.2 2-15.5 3.6-25.4 4.2l-.2-.2c25.4 13 62.1 13 104.3-3.2 47.3-18.2 91.3-52.8 122-92.4-.4.2-.9.4-1.3.6z"/><path fill="#088CB9" d="M6.5 129.8c1.3 9.9 4.2 19.2 8.5 27.6l2.5 4.5c1.6 2.6 3.3 5.2 5.1 7.6 8.9.6 17 .8 24.5.6 14.7-.3 26.7-2.1 35.8-5.2 1.4-.5 2.8.2 3.3 1.6.5 1.4-.2 2.8-1.6 3.3-1.2.4-2.5.8-3.8 1.2-7.2 2-15.4 3.5-25.3 4.1h-1.3c-3.9.2-8.1.4-12.4.4-4.7 0-9.5-.1-14.7-.4 18 20.2 46.2 32.4 81.5 32.4 63.8 0 119.3-24.2 151.5-77.7H6.5z"/><path fill="#069BC6" d="M20.8 129.8c3.8 17.4 13 31 26.3 40.3 14.7-.3 26.7-2.1 35.8-5.2 1.4-.5 2.8.2 3.3 1.6.5 1.4-.2 2.8-1.6 3.3-1.2.4-2.5.8-3.8 1.2-7.2 2-15.6 3.5-25.5 4.1 25.4 13 62 12.8 104.2-3.4 25.5-9.8 50.1-24.4 72.1-42H20.8z"/><g fill-rule="evenodd" clip-rule="evenodd"><path fill="#00ACD2" d="M59.8 75.3h2.3v24.3h-2.3V75.3zm-4.5 0h2.4v24.3h-2.4V75.3zm-4.4 0h2.4v24.3h-2.4V75.3zm-4.4 0h2.4v24.3h-2.4V75.3zm-4.4 0h2.4v24.3h-2.4V75.3zm-4.3 0h2.3v24.3h-2.3V75.3zm-2.5-2.4h29.2v29.2H35.3V72.9zM93.4 41.7h2.3V66h-2.3V41.7zm-4.4 0h2.4V66H89V41.7zm-4.4 0H87V66h-2.4V41.7zm-4.4 0h2.4V66h-2.4V41.7zm-4.5 0h2.4V66h-2.4V41.7zm-4.3 0h2.3V66h-2.3V41.7zM69 39.3h29.2v29.2H69V39.3z"/><path fill="#26C2EE" d="M93.4 75.3h2.3v24.3h-2.3V75.3zm-4.4 0h2.4v24.3H89V75.3zm-4.4 0H87v24.3h-2.4V75.3zm-4.4 0h2.4v24.3h-2.4V75.3zm-4.5 0h2.4v24.3h-2.4V75.3zm-4.3 0h2.3v24.3h-2.3V75.3zM69 72.9h29.2v29.2H69V72.9z"/><path fill="#00ACD2" d="M127.1 75.3h2.3v24.3h-2.3V75.3zm-4.5 0h2.4v24.3h-2.4V75.3zm-4.4 0h2.4v24.3h-2.4V75.3zm-4.4 0h2.4v24.3h-2.4V75.3zm-4.4 0h2.4v24.3h-2.4V75.3zm-4.3 0h2.3v24.3h-2.3V75.3zm-2.5-2.4h29.2v29.2h-29.2V72.9z"/><path fill="#26C2EE" d="M127.1 41.7h2.3V66h-2.3V41.7zm-4.5 0h2.4V66h-2.4V41.7zm-4.4 0h2.4V66h-2.4V41.7zm-4.4 0h2.4V66h-2.4V41.7zm-4.4 0h2.4V66h-2.4V41.7zm-4.3 0h2.3V66h-2.3V41.7zm-2.5-2.4h29.2v29.2h-29.2V39.3zM160.7 75.3h2.3v24.3h-2.3V75.3zm-4.4 0h2.4v24.3h-2.4V75.3zm-4.4 0h2.4v24.3h-2.4V75.3zm-4.4 0h2.4v24.3h-2.4V75.3zm-4.5 0h2.4v24.3H143V75.3zm-4.3 0h2.3v24.3h-2.3V75.3zm-2.4-2.4h29.2v29.2h-29.2V72.9z"/><path fill="#00ACD2" d="M160.7 41.7h2.3V66h-2.3V41.7zm-4.4 0h2.4V66h-2.4V41.7zm-4.4 0h2.4V66h-2.4V41.7zm-4.4 0h2.4V66h-2.4V41.7zm-4.5 0h2.4V66H143V41.7zm-4.3 0h2.3V66h-2.3V41.7zm-2.4-2.4h29.2v29.2h-29.2V39.3z"/><path fill="#26C2EE" d="M160.7 8h2.3v24.3h-2.3V8zm-4.4 0h2.4v24.3h-2.4V8zm-4.4 0h2.4v24.3h-2.4V8zm-4.4 0h2.4v24.3h-2.4V8zM143 8h2.4v24.3H143V8zm-4.3 0h2.3v24.3h-2.3V8zm-2.4-2.4h29.2v29.2h-29.2V5.6z"/><path fill="#00ACD2" d="M194.4 75.3h2.3v24.3h-2.3V75.3zm-4.5 0h2.4v24.3h-2.4V75.3zm-4.4 0h2.4v24.3h-2.4V75.3zm-4.4 0h2.4v24.3h-2.4V75.3zm-4.4 0h2.4v24.3h-2.4V75.3zm-4.3 0h2.3v24.3h-2.3V75.3zm-2.5-2.4h29.2v29.2h-29.2V72.9z"/></g><path fill-rule="evenodd" clip-rule="evenodd" fill="#D4EDF1" d="M96.3 149.4c4.4 0 8 3.6 8 8s-3.6 8-8 8-8-3.6-8-8 3.6-8 8-8"/><path fill-rule="evenodd" clip-rule="evenodd" fill="#3A4E55" d="M96.3 151.6c.7 0 1.4.1 2.1.4-.7.4-1.2 1.2-1.2 2 0 1.3 1.1 2.4 2.4 2.4.9 0 1.7-.5 2.1-1.2.3.7.4 1.4.4 2.2 0 3.2-2.6 5.8-5.8 5.8-3.2 0-5.8-2.6-5.8-5.8.1-3.2 2.6-5.8 5.8-5.8"/><path fill="#C0DBE0" d="M117.7 207.3C97.8 197.9 86.8 185 80.8 171c-7.4 2.1-16.3 3.5-26.6 4-3.9.2-8 .3-12.3.3-5 0-10.2-.1-15.7-.4 18.3 18.3 40.8 32.3 82.4 32.6 3 0 6.1 0 9.1-.2z"/><path fill="#D4EDF1" d="M88.2 183.9c-2.8-3.7-5.4-8.4-7.4-12.9-7.4 2.1-16.3 3.5-26.6 4 7 3.9 17.2 7.5 34 8.9z"/></svg>